# xmcd
#
# Track frame offsets:
#	150
#	11909
#	25239
#	38804
#	53916
#	68209
#	83566
#	96948
#	108154
#	119913
#	136687
#	151177
#	163888
#
# Disc length: 2418 seconds
# Revision: 0
# Processed by: cddbd v1.5.2PL0 Copyright (c) Steve Scherf et al.
# Submitted via: dBpowerAMP V12.0
#
DISCID=a709700d
DTITLE=Brennen Leigh - The Box
DYEAR=2011
DGENRE=Country
TTITLE0=Rolling Green Hills
TTITLE1=The Box
TTITLE2=Something Borrowed
TTITLE3=Sleeping With The Devil
TTITLE4=What'll I Do
TTITLE5=Distracted
TTITLE6=Traveling On
TTITLE7=Just To Hear My Little Bluebird Sing
TTITLE8=You Made A Fool Out Of Me
TTITLE9=Are You Stringing Me Along
TTITLE10=In The Bighorn Mountains
TTITLE11=Backsliding Blues
TTITLE12=Unbroken Line
EXTD=
EXTT0=
EXTT1=
EXTT2=
EXTT3=
EXTT4=
EXTT5=
EXTT6=
EXTT7=
EXTT8=
EXTT9=
EXTT10=
EXTT11=
EXTT12=
PLAYORDER=
